# xmcd
#
# Track frame offsets:
#	150
#	6734
#	20737
#	30290
#	44886
#	53375
#	66398
#	76999
#	85677
#	95038
#	101676
#	108702
#	117003
#	128387
#	142602
#
# Disc length: 2019 seconds
#
# Revision: 0
# Processed by: cddbd v1.5.2PL0 Copyright (c) Steve Scherf et al.
# Submitted via: EasyCDDAExtractor 12.0.1.1
#
DISCID=bf07e10f
DTITLE=Don Buedel and Renee Wood - Ford THe Ruiver At Owl's Creek
DYEAR=1900
DGENRE=Bluegrass
TTITLE0=Blue-Eyed Gal
TTITLE1=Shady Grove - Cold Frosty Morning
TTITLE2=Steve's Schottische
TTITLE3=St. Anne's Reel - Wind That Shakes The Barley
TTITLE4=Billy Barlow
TTITLE5=Ballydesmond Polka - Jeny Lind Polka
TTITLE6=Off To California
TTITLE7=Brazos Waltz
TTITLE8=Fisher's Hornpipe
TTITLE9=June Apple
TTITLE10=Ragtime Annie
TTITLE11=Snake River Reel
TTITLE12=Will Bill Jones
TTITLE13=Soldier's Joy - Over The Waterfall
TTITLE14=Marching Down Broadway
EXTD=
EXTT0=
EXTT1=
EXTT2=
EXTT3=
EXTT4=
EXTT5=
EXTT6=
EXTT7=
EXTT8=
EXTT9=
EXTT10=
EXTT11=
EXTT12=
EXTT13=
EXTT14=
PLAYORDER=
